<svg width="104" height="30" viewBox="0 0 104 30" fill="none" xmlns="http://www.w3.org/2000/svg">
<mask id="mask0_523_2260" style="mask-type:luminance" maskUnits="userSpaceOnUse" x="0" y="0" width="104" height="30">
<path d="M104 0H0V30H104V0Z" fill="white"/>
</mask>
<g mask="url(#mask0_523_2260)">
<path d="M89.4681 29.4211C85.8708 30.7459 84.4079 29.4908 84.4079 28.6986C85.6824 28.5965 88.7274 28.4303 89.4681 29.4211ZM94.0339 28.3378C93.1405 28.9623 92.0434 29.2646 90.9369 29.1907C89.8313 29.1169 88.7887 28.6719 87.9959 27.9349C89.2235 27.6105 92.5753 27.2262 94.0339 28.3378ZM87.9482 25.7627C88.0846 27.4111 86.3098 28.3378 84.3934 28.4716C84.743 26.8135 86.5323 26.0732 87.9482 25.7627ZM91.3853 24.2432C91.5882 24.9478 91.3094 26.8605 88.5526 27.6195C88.6711 26.3278 89.3931 24.6462 91.3853 24.2432ZM96.8521 26.1608C96.1454 26.8316 95.2137 27.2453 94.2189 27.3299C93.2241 27.4145 92.2301 27.1646 91.4092 26.6238C92.514 26.0822 95.1668 25.3508 96.8521 26.1608ZM93.9393 22.3451C94.3169 23.0392 94.3971 25.0167 91.9565 26.207C91.815 24.934 92.3529 22.757 93.9393 22.3451ZM99.9772 23.1138C99.7471 23.5437 99.4283 23.9248 99.0387 24.2338C98.6491 24.5428 98.1982 24.7733 97.7123 24.9113C97.2306 25.0458 96.7251 25.0835 96.2281 25.022C95.7303 24.9606 95.2521 24.8014 94.8224 24.5546C96.3611 23.1786 98.8162 22.6508 99.9772 23.1138ZM96.3287 19.427C97.4233 21.2432 96.2665 23.3173 95.0628 24.1695C94.5275 22.4813 95.0193 20.6416 96.3287 19.427ZM102.008 19.3484C102.14 22.1692 99.043 22.0159 97.5887 22.0346C98.0464 21.4419 100.591 19.2932 102.008 19.3484ZM98.1888 16.7132C98.7642 17.3157 99.6277 19.6313 97.7157 21.5205C97.1164 20.1543 96.9851 18.0567 98.1888 16.7132ZM103.632 15.463C103.731 17.7413 101.715 18.8943 99.7701 18.8765C100.355 17.7786 101.918 15.6624 103.632 15.463ZM99.5527 13.8932C100.842 14.6149 100.695 16.9451 99.9346 18.1581C99.0805 17.0286 98.4428 15.6251 99.5527 13.8932ZM103.716 11.7584C104.354 13.8332 102.48 15.2367 101.356 15.3567C101.644 14.3659 102.021 12.6105 103.716 11.7584ZM99.7889 11.0684C101.21 11.7454 101.883 13.3646 101.351 14.824C100.36 14.0643 99.1657 12.4573 99.7889 11.0684ZM103.783 8.5581C104.661 11.0822 102.645 11.9067 101.894 12.1095C101.984 11.0359 102.702 8.89621 103.783 8.5581ZM99.8451 7.89568C100.421 8.05378 102.064 9.33648 101.767 11.6335C100.686 11.0546 99.3729 9.95188 99.8451 7.89568ZM103.188 4.73351C104.17 7.83567 102.531 9.10945 101.993 9.36323C101.908 8.38215 101.804 6.09 103.188 4.73351ZM99.5527 4.81135C100.582 5.08459 101.88 6.88135 101.819 8.60918C100.799 8.16486 99.274 6.31703 99.5527 4.81135ZM99.8596 0C102.248 2.34811 102.583 4.2 101.885 6.48324C100.803 5.5573 99.9397 2.77865 99.8596 0ZM14.5319 29.4211C18.1293 30.7459 19.5921 29.4908 19.5921 28.6986C18.3176 28.5965 15.2727 28.4303 14.5319 29.4211ZM9.96525 28.3378C10.8586 28.9623 11.9561 29.2646 13.0621 29.1907C14.168 29.1169 15.2103 28.6719 16.0032 27.9349C14.7757 27.6105 11.4238 27.2262 9.96525 28.3378ZM16.051 25.7627C15.9146 27.4111 17.6894 28.3378 19.6057 28.4716C19.2562 26.8135 17.4669 26.0732 16.051 25.7627ZM12.6147 24.2432C12.4118 24.9478 12.6906 26.8605 15.4474 27.6195C15.3289 26.3278 14.6069 24.6462 12.6147 24.2432ZM7.14787 26.1608C7.85478 26.8316 8.78664 27.2453 9.78121 27.3299C10.7758 27.4145 11.77 27.1646 12.5908 26.6238C11.486 26.0822 8.83319 25.3508 7.14787 26.1608ZM10.0607 22.3451C9.68309 23.0392 9.60296 25.0167 12.0435 26.207C12.1851 24.934 11.6472 22.757 10.0607 22.3451ZM4.02276 23.1138C4.25252 23.5437 4.57178 23.9248 4.96114 24.2338C5.3505 24.5428 5.80184 24.7733 6.28774 24.9113C6.76911 25.0458 7.27461 25.0835 7.77211 25.022C8.26962 24.9606 8.74828 24.8014 9.17758 24.5546C7.63889 23.1786 5.18381 22.6508 4.02276 23.1138ZM7.67128 19.427C6.57673 21.2432 7.73352 23.3173 8.93719 24.1695C9.47253 22.4813 8.98151 20.6416 7.67214 19.427H7.67128ZM1.9922 19.3484C2.18145 22.0346 4.95705 22.0159 6.41135 22.0346C5.95358 21.4419 3.40899 19.2932 1.9922 19.3484ZM5.81122 16.7132C5.23581 17.3157 4.37227 19.6313 6.28433 21.5205C6.88361 20.1543 7.01489 18.0567 5.81122 16.7132ZM0.369124 15.463C0.270238 17.7413 2.2863 18.8943 4.23076 18.8765C3.64597 17.7786 2.08256 15.6624 0.369124 15.463ZM4.44814 13.8932C3.15922 14.6149 3.30584 16.9451 4.06623 18.1581C4.9204 17.0286 5.55804 15.6251 4.44814 13.8932ZM0.283878 11.7584C-0.353762 13.8332 1.51994 15.2367 2.64434 15.3567C2.35621 14.3659 1.97856 12.6105 0.283025 11.7584H0.283878ZM4.21115 11.0684C2.7901 11.7454 2.11667 13.3646 2.6486 14.824C3.64001 14.0643 4.8343 12.4573 4.21115 11.0684ZM0.217386 8.5581C-0.660647 11.0822 1.35542 11.9067 2.10559 12.1095C2.01608 11.0359 1.2983 8.89621 0.217386 8.5581ZM4.15489 7.89568C3.57863 8.05378 1.93594 9.33648 2.23345 11.6335C3.31437 11.0546 4.62715 9.95188 4.15489 7.89568ZM0.812402 4.73351C-0.16963 7.83567 1.46879 9.10945 2.00669 9.36323C2.09194 8.38215 2.19595 6.09 0.812402 4.73351ZM4.44728 4.81135C3.41837 5.08459 2.12007 6.88135 2.18145 8.60918C3.20099 8.16486 4.72604 6.31703 4.44728 4.81135ZM4.1404 0C1.75181 2.34811 1.41679 4.2 2.11496 6.48324C3.19673 5.5573 4.06027 2.77865 4.1404 0ZM17.663 12.1622C17.7397 12.1622 17.7908 12.1135 17.7908 12.0405V10.2081H18.4046C19.8453 10.2081 20.5272 9.45405 20.5272 8.35134C20.5272 7.24865 19.8453 6.48649 18.4046 6.48649H16.5718C16.4951 6.48649 16.4439 6.53513 16.4439 6.60811V12.0405C16.4439 12.1135 16.4951 12.1622 16.5718 12.1622H17.663ZM17.7908 7.62162H18.3705C18.8223 7.62162 19.24 7.75946 19.24 8.35134C19.24 8.93513 18.8223 9.07296 18.3705 9.07296H17.7908V7.62162ZM22.4793 12.1622C22.5561 12.1622 22.6157 12.1135 22.6157 12.0405V10.127C22.6157 9.53513 22.9397 9.2108 23.4767 9.2108C23.6046 9.2108 23.6984 9.22702 23.7836 9.25134C23.903 9.27567 23.9626 9.25134 23.9626 9.14594V8.35945C23.9626 8.28648 23.9456 8.23783 23.8859 8.19729C23.8177 8.14864 23.7069 8.09189 23.5023 8.09189C23.0164 8.09189 22.7521 8.41621 22.6157 8.84594L22.5731 8.31891C22.5731 8.22161 22.522 8.18918 22.4453 8.18918H21.4393C21.3626 8.18918 21.3115 8.23783 21.3115 8.3108V12.0405C21.3115 12.1135 21.3626 12.1622 21.4393 12.1622H22.4793ZM26.5456 12.2595C27.8072 12.2595 28.7449 11.3513 28.7449 10.1757C28.7449 8.99999 27.8072 8.09189 26.5456 8.09189C25.2839 8.09189 24.3548 8.99999 24.3548 10.1757C24.3548 11.3513 25.2839 12.2595 26.5456 12.2595ZM26.5456 11.1243C26.0171 11.1243 25.6079 10.7595 25.6079 10.1757C25.6079 9.59188 26.0171 9.22702 26.5456 9.22702C27.0741 9.22702 27.4833 9.59188 27.4833 10.1757C27.4833 10.7595 27.0741 11.1243 26.5456 11.1243ZM31.2256 12.2595C31.8223 12.2595 32.2485 12.0324 32.5298 11.6513L32.5469 12.0405C32.5469 12.1135 32.6066 12.1622 32.6833 12.1622H33.621C33.6977 12.1622 33.7659 12.1135 33.7659 12.0405V6.48649C33.7659 6.41351 33.7062 6.36486 33.6295 6.36486H32.581C32.5043 6.36486 32.4531 6.41351 32.4531 6.48649V8.58648C32.1718 8.27026 31.7712 8.09189 31.2256 8.09189C30.0662 8.09189 29.2649 8.99999 29.2649 10.1757C29.2649 11.3595 30.0662 12.2595 31.2256 12.2595ZM31.5069 11.1324C30.9528 11.1324 30.5351 10.7595 30.5351 10.1757C30.5351 9.59999 30.9528 9.21891 31.5069 9.21891C32.078 9.21891 32.4702 9.59999 32.4702 10.1676C32.4702 10.7513 32.078 11.1324 31.5069 11.1324ZM36.2125 12.2595C36.8177 12.2595 37.2013 11.9757 37.44 11.5703L37.4741 12.0324C37.4741 12.1297 37.5338 12.1622 37.6105 12.1622H38.6079C38.6846 12.1622 38.7443 12.1135 38.7443 12.0405V8.3108C38.7443 8.23783 38.6846 8.18918 38.6079 8.18918H37.5764C37.4997 8.18918 37.44 8.23783 37.44 8.3108V10.3216C37.44 10.8486 37.1587 11.1243 36.7154 11.1243C36.2551 11.1243 36.0164 10.8486 36.0164 10.3216V8.3108C36.0164 8.23783 35.9567 8.18918 35.88 8.18918H34.84C34.7633 8.18918 34.7121 8.23783 34.7121 8.3108V10.6135C34.7121 11.6513 35.343 12.2595 36.2125 12.2595ZM41.7023 12.2595C42.3757 12.2595 42.9384 11.9757 43.2964 11.5297C43.3475 11.473 43.339 11.4081 43.2879 11.3595L42.6997 10.8243C42.6315 10.7595 42.5377 10.7595 42.478 10.8162C42.2479 11.0189 42.0262 11.1243 41.7449 11.1243C41.1141 11.1243 40.739 10.6703 40.739 10.1513C40.739 9.64053 41.1141 9.22702 41.7279 9.22702C42.0177 9.22702 42.2393 9.32432 42.461 9.53513C42.5292 9.59188 42.623 9.59188 42.6912 9.52702L43.2793 8.99188C43.3305 8.94323 43.339 8.87026 43.2879 8.82161C42.9298 8.37567 42.3672 8.09189 41.6682 8.09189C40.4066 8.09189 39.4859 8.98378 39.4859 10.1513C39.4859 11.3432 40.4236 12.2595 41.7023 12.2595ZM45.7685 12.2595C46.0584 12.2595 46.5187 12.2108 46.5187 12.0081V11.3351C46.5187 11.254 46.4505 11.2135 46.3652 11.2216C46.2544 11.2297 46.1777 11.2297 46.101 11.2297C45.8879 11.2297 45.743 11.1162 45.743 10.8973V9.14594H46.3823C46.459 9.14594 46.5102 9.09729 46.5102 9.02432V8.3108C46.5102 8.23783 46.459 8.18918 46.3823 8.18918H45.743V7.25676C45.743 7.18378 45.6833 7.13513 45.6066 7.13513H44.558C44.4813 7.13513 44.4216 7.18378 44.4216 7.25676V8.18918H43.9016C43.8249 8.18918 43.7738 8.23783 43.7738 8.3108V9.02432C43.7738 9.09729 43.8249 9.14594 43.9016 9.14594H44.4216V11.0351C44.4216 11.9595 45.078 12.2595 45.7685 12.2595ZM50.8407 12.2595C52.1023 12.2595 53.04 11.3513 53.04 10.1757C53.04 8.99999 52.1023 8.09189 50.8407 8.09189C49.579 8.09189 48.6498 8.99999 48.6498 10.1757C48.6498 11.3513 49.579 12.2595 50.8407 12.2595ZM50.8407 11.1243C50.3121 11.1243 49.903 10.7595 49.903 10.1757C49.903 9.59188 50.3121 9.22702 50.8407 9.22702C51.3692 9.22702 51.7784 9.59188 51.7784 10.1757C51.7784 10.7595 51.3692 11.1243 50.8407 11.1243ZM55.2308 12.1622C55.3075 12.1622 55.3672 12.1135 55.3672 12.0405V9.14594H56.2026C56.2794 9.14594 56.3305 9.09729 56.3305 9.02432V8.3108C56.3305 8.23783 56.2794 8.18918 56.2026 8.18918H55.3672V7.79189C55.3672 7.52432 55.461 7.32973 55.8616 7.32973C55.9554 7.32973 56.0748 7.35405 56.2197 7.37838C56.2793 7.38649 56.3305 7.37838 56.3305 7.32162V6.5027C56.3305 6.45405 56.3049 6.3973 56.2538 6.37297C55.998 6.25135 55.8105 6.23513 55.5548 6.23513C54.6256 6.23513 54.0544 6.65676 54.0544 7.62973V8.18918H53.56C53.4833 8.18918 53.4321 8.23783 53.4321 8.3108V9.02432C53.4321 9.09729 53.4833 9.14594 53.56 9.14594H54.0544V12.0405C54.0544 12.1135 54.1056 12.1622 54.1823 12.1622H55.2308ZM60.4138 12.2595C60.7036 12.2595 61.1639 12.2108 61.1639 12.0081V11.3351C61.1639 11.254 61.0957 11.2135 61.0105 11.2216C60.8997 11.2297 60.823 11.2297 60.7462 11.2297C60.5331 11.2297 60.3882 11.1162 60.3882 10.8973V9.14594H61.0275C61.1043 9.14594 61.1554 9.09729 61.1554 9.02432V8.3108C61.1554 8.23783 61.1043 8.18918 61.0275 8.18918H60.3882V7.25676C60.3882 7.18378 60.3285 7.13513 60.2518 7.13513H59.2033C59.1266 7.13513 59.0669 7.18378 59.0669 7.25676V8.18918H58.5469C58.4702 8.18918 58.419 8.23783 58.419 8.3108V9.02432C58.419 9.09729 58.4702 9.14594 58.5469 9.14594H59.0669V11.0351C59.0669 11.9595 59.7233 12.2595 60.4138 12.2595ZM64.3777 8.09189C63.781 8.09189 63.3974 8.37567 63.1587 8.78107V6.48649C63.1587 6.41351 63.099 6.36486 63.0223 6.36486H61.9823C61.9056 6.36486 61.8544 6.41351 61.8544 6.48649V12.0405C61.8544 12.1135 61.9056 12.1622 61.9823 12.1622H63.0223C63.099 12.1622 63.1587 12.1135 63.1587 12.0405V10.0297C63.1587 9.50269 63.4315 9.22702 63.8833 9.22702C64.3436 9.22702 64.5823 9.50269 64.5823 10.0297V12.0405C64.5823 12.1135 64.642 12.1622 64.7187 12.1622H65.7502C65.8269 12.1622 65.8866 12.1135 65.8866 12.0405V9.73783C65.8866 8.69999 65.2472 8.09189 64.3777 8.09189ZM68.9298 12.2595C69.518 12.2595 70.0551 12.0973 70.4131 11.7567C70.4898 11.6919 70.4898 11.627 70.4557 11.5784L70.1062 11.1081C70.0551 11.0513 70.021 11.0351 69.9528 11.0676C69.6033 11.254 69.3135 11.2865 69.0321 11.2865C68.4354 11.2865 68.0433 11.0757 67.8984 10.6459H70.3023C70.6859 10.6459 70.7967 10.4027 70.7967 9.99729C70.7967 8.97567 70.0551 8.09189 68.7764 8.09189C67.4892 8.09189 66.6282 8.99188 66.6282 10.1595C66.6282 11.3676 67.5574 12.2595 68.9298 12.2595ZM67.8813 9.78648C67.9836 9.31621 68.3502 9.1135 68.7849 9.1135C69.2197 9.1135 69.5521 9.3081 69.6374 9.78648H67.8813ZM74.9312 12.2595C75.5279 12.2595 75.9541 12.0324 76.2354 11.6513L76.2525 12.0405C76.2525 12.1135 76.3121 12.1622 76.3889 12.1622H77.3266C77.4033 12.1622 77.4715 12.1135 77.4715 12.0405V6.48649C77.4715 6.41351 77.4118 6.36486 77.3351 6.36486H76.2866C76.2098 6.36486 76.1587 6.41351 76.1587 6.48649V8.58648C75.8774 8.27026 75.4767 8.09189 74.9312 8.09189C73.7718 8.09189 72.9705 8.99999 72.9705 10.1757C72.9705 11.3595 73.7718 12.2595 74.9312 12.2595ZM75.2125 11.1324C74.6584 11.1324 74.2407 10.7595 74.2407 10.1757C74.2407 9.59999 74.6584 9.21891 75.2125 9.21891C75.7836 9.21891 76.1757 9.59999 76.1757 10.1676C76.1757 10.7513 75.7836 11.1324 75.2125 11.1324ZM80.1653 12.2595C80.762 12.2595 81.1882 12.0324 81.4695 11.6513L81.4866 12.0405C81.4866 12.1135 81.5462 12.1622 81.623 12.1622H82.5607C82.6374 12.1622 82.7056 12.1135 82.7056 12.0405V8.3108C82.7056 8.23783 82.6459 8.18918 82.5692 8.18918H81.623C81.5462 8.18918 81.4866 8.23783 81.4866 8.3108L81.4695 8.69188C81.1967 8.31891 80.779 8.09189 80.1653 8.09189C79.0059 8.09189 78.2046 8.99999 78.2046 10.1757C78.2046 11.3595 79.0059 12.2595 80.1653 12.2595ZM80.4466 11.1324C79.8925 11.1324 79.4748 10.7595 79.4748 10.1757C79.4748 9.59999 79.8925 9.21891 80.4466 9.21891C81.0177 9.21891 81.4098 9.59999 81.4098 10.1676C81.4098 10.7513 81.0177 11.1324 80.4466 11.1324ZM85.5272 13.7027C85.5954 13.7027 85.6551 13.6703 85.6807 13.6054L87.8971 8.32702C87.9312 8.23783 87.88 8.18918 87.7862 8.18918H86.7292C86.661 8.18918 86.5928 8.22161 86.5672 8.28648L85.6466 10.7189L84.7259 8.28648C84.7003 8.22161 84.6321 8.18918 84.5639 8.18918H83.5069C83.4131 8.18918 83.362 8.23783 83.3961 8.32702L85.0157 12.1703L84.402 13.5567C84.3594 13.654 84.4105 13.7027 84.5128 13.7027H85.5272Z" fill="black"/>
<path d="M42.4319 23.2279C41.5772 22.7955 41.1498 22.1165 41.1498 21.1911C41.1498 20.7241 41.2771 20.3003 41.5317 19.9198C41.7864 19.5306 42.1728 19.2235 42.6911 18.9987C43.2094 18.7652 43.8459 18.6484 44.6006 18.6484C45.3553 18.6484 45.9873 18.7652 46.4965 18.9987C47.0148 19.2235 47.4012 19.5306 47.6558 19.9198C47.9104 20.3003 48.0377 20.7241 48.0377 21.1911C48.0377 21.6582 47.9195 22.0646 47.6831 22.4106C47.4557 22.7566 47.1466 23.029 46.7556 23.2279C47.2466 23.4527 47.624 23.7641 47.8877 24.162C48.1513 24.5511 48.2832 25.0095 48.2832 25.5371C48.2832 26.1511 48.1195 26.683 47.7922 27.1328C47.4649 27.5738 47.0193 27.9111 46.4555 28.1447C45.9008 28.3782 45.2826 28.4949 44.6006 28.4949C43.9186 28.4949 43.2957 28.3782 42.732 28.1447C42.1773 27.9111 41.7363 27.5738 41.409 27.1328C41.0816 26.683 40.918 26.1511 40.918 25.5371C40.918 25.0009 41.0498 24.5382 41.3135 24.149C41.5772 23.7511 41.95 23.4441 42.4319 23.2279ZM45.7736 21.5284C45.7736 21.1739 45.6645 20.9014 45.4462 20.7111C45.2371 20.5122 44.9552 20.4128 44.6006 20.4128C44.246 20.4128 43.9595 20.5122 43.7413 20.7111C43.5322 20.91 43.4276 21.1868 43.4276 21.5414C43.4276 21.8787 43.5367 22.1468 43.755 22.3457C43.9732 22.536 44.2551 22.6311 44.6006 22.6311C44.9461 22.6311 45.228 22.5317 45.4462 22.3328C45.6645 22.1339 45.7736 21.8657 45.7736 21.5284ZM44.6006 24.1879C44.1733 24.1879 43.8277 24.3004 43.564 24.5252C43.3003 24.7414 43.1685 25.0441 43.1685 25.4333C43.1685 25.7965 43.2957 26.0949 43.5504 26.3284C43.814 26.562 44.1641 26.6787 44.6006 26.6787C45.0371 26.6787 45.378 26.562 45.6235 26.3284C45.8782 26.0949 46.0054 25.7965 46.0054 25.4333C46.0054 25.0528 45.8736 24.75 45.6099 24.5252C45.3553 24.3004 45.0189 24.1879 44.6006 24.1879ZM54.1132 26.4322V28.3133H52.9266C52.0809 28.3133 51.4217 28.1187 50.9489 27.7295C50.476 27.3317 50.2396 26.6874 50.2396 25.7965V22.9165H49.3121V21.0744H50.2396V19.3101H52.5719V21.0744H54.0995V22.9165H52.5719V25.8225C52.5719 26.0387 52.6265 26.1944 52.7356 26.2895C52.8447 26.3846 53.0266 26.4322 53.2812 26.4322H54.1132ZM60.0906 20.9965C60.9635 20.9965 61.6637 21.2733 62.1911 21.8268C62.7185 22.3717 62.9822 23.1241 62.9822 24.0841V28.3133H60.6635V24.3825C60.6635 23.8982 60.5316 23.522 60.2679 23.2538C60.0043 22.9857 59.6496 22.8517 59.2041 22.8517C58.7585 22.8517 58.4039 22.9857 58.1402 23.2538C57.8765 23.522 57.7447 23.8982 57.7447 24.3825V28.3133H55.4123V18.7133H57.7447V22.0474C57.981 21.7273 58.3039 21.4722 58.7131 21.282C59.1222 21.0917 59.5815 20.9965 60.0906 20.9965Z" fill="black"/>
</g>
</svg>
