<svg width="348" height="348" viewBox="0 0 348 348" fill="none" xmlns="http://www.w3.org/2000/svg">
<rect width="348" height="348" rx="60" fill="#F0EEFB"/>
<path d="M135.7 202.6C130.42 202.6 125.887 201.693 122.1 199.88C118.313 198.013 115.193 195.587 112.74 192.6C110.287 189.56 108.473 186.28 107.3 182.76C106.127 179.24 105.54 175.827 105.54 172.52V170.76C105.54 167.08 106.127 163.48 107.3 159.96C108.527 156.387 110.367 153.16 112.82 150.28C115.327 147.4 118.447 145.107 122.18 143.4C125.913 141.693 130.287 140.84 135.3 140.84C140.633 140.84 145.353 141.853 149.46 143.88C153.62 145.853 156.953 148.653 159.46 152.28C161.967 155.853 163.433 160.013 163.86 164.76H148.98C148.607 162.733 147.807 160.973 146.58 159.48C145.353 157.987 143.78 156.84 141.86 156.04C139.94 155.187 137.753 154.76 135.3 154.76C133.007 154.76 130.927 155.16 129.06 155.96C127.247 156.76 125.7 157.907 124.42 159.4C123.193 160.84 122.233 162.6 121.54 164.68C120.9 166.76 120.58 169.107 120.58 171.72C120.58 174.333 120.9 176.68 121.54 178.76C122.233 180.84 123.22 182.627 124.5 184.12C125.833 185.613 127.433 186.76 129.3 187.56C131.167 188.307 133.3 188.68 135.7 188.68C139.433 188.68 142.58 187.773 145.14 185.96C147.753 184.147 149.327 181.72 149.86 178.68H164.74C164.26 183.053 162.793 187.053 160.34 190.68C157.887 194.307 154.58 197.213 150.42 199.4C146.26 201.533 141.353 202.6 135.7 202.6Z" fill="#141359"/>
<path d="M209.06 202.6C203.727 202.6 199.087 201.693 195.14 199.88C191.193 198.013 187.913 195.587 185.3 192.6C182.687 189.56 180.74 186.28 179.46 182.76C178.18 179.24 177.54 175.827 177.54 172.52V170.76C177.54 167.08 178.207 163.48 179.54 159.96C180.873 156.387 182.873 153.16 185.54 150.28C188.207 147.4 191.487 145.107 195.38 143.4C199.327 141.693 203.887 140.84 209.06 140.84C214.18 140.84 218.687 141.693 222.58 143.4C226.527 145.107 229.833 147.4 232.5 150.28C235.167 153.16 237.167 156.387 238.5 159.96C239.887 163.48 240.58 167.08 240.58 170.76V172.52C240.58 175.827 239.913 179.24 238.58 182.76C237.3 186.28 235.353 189.56 232.74 192.6C230.127 195.587 226.847 198.013 222.9 199.88C218.953 201.693 214.34 202.6 209.06 202.6ZM209.06 188.68C211.62 188.68 213.913 188.253 215.94 187.4C217.967 186.547 219.7 185.347 221.14 183.8C222.58 182.253 223.673 180.467 224.42 178.44C225.167 176.36 225.54 174.12 225.54 171.72C225.54 169.16 225.14 166.84 224.34 164.76C223.593 162.68 222.5 160.893 221.06 159.4C219.62 157.907 217.887 156.76 215.86 155.96C213.833 155.16 211.567 154.76 209.06 154.76C206.5 154.76 204.207 155.16 202.18 155.96C200.153 156.76 198.42 157.907 196.98 159.4C195.54 160.893 194.447 162.68 193.7 164.76C192.953 166.84 192.58 169.16 192.58 171.72C192.58 174.12 192.953 176.36 193.7 178.44C194.447 180.467 195.54 182.253 196.98 183.8C198.42 185.347 200.153 186.547 202.18 187.4C204.207 188.253 206.5 188.68 209.06 188.68Z" fill="#605DFC"/>
</svg>
